<svg xmlns="http://www.w3.org/2000/svg" xmlns:xlink="http://www.w3.org/1999/xlink" width="794" zoomAndPan="magnify" viewBox="0 0 595.5 595.499986" height="794" preserveAspectRatio="xMidYMid meet" version="1.0"><defs><clipPath id="75a2adc593"><rect x="0" width="595" y="0" height="595"/></clipPath></defs><g transform="matrix(1, 0, 0, 1, 0, 0)"><g clip-path="url(#75a2adc593)"><path fill="#edbd5e" d="M 297.496094 122.371094 C 241.367188 122.371094 195.554688 167.984375 195.554688 224.113281 C 195.554688 280.4375 241.367188 326.054688 297.496094 326.054688 C 353.625 326.054688 399.4375 280.4375 399.4375 224.113281 C 399.4375 167.984375 353.625 122.371094 297.496094 122.371094 Z M 297.496094 122.371094 " fill-opacity="1" fill-rule="nonzero"/><path fill="#edbd5e" d="M 297.296875 0.199219 C 133.476562 0.199219 0 133.476562 0 297.496094 C 0 388.726562 41.453125 470.4375 106.304688 524.980469 C 106.304688 524.980469 106.304688 524.980469 106.304688 525.179688 C 158.070312 568.613281 224.707031 594.792969 297.296875 594.792969 C 400.824219 594.792969 495.230469 542.433594 549.96875 454.570312 C 579.519531 407.371094 594.992188 353.226562 594.992188 297.496094 C 594.992188 241.765625 579.519531 187.421875 549.96875 140.417969 C 495.230469 52.558594 400.824219 0.199219 297.296875 0.199219 Z M 516.453125 433.550781 C 506.933594 448.820312 495.824219 462.308594 483.726562 475 C 453.582031 413.121094 389.519531 371.867188 318.714844 371.867188 L 276.273438 371.867188 C 227.089844 371.867188 180.878906 391.105469 146.167969 425.8125 C 131.691406 440.09375 120.1875 456.953125 111.261719 475.199219 C 67.035156 428.988281 39.667969 366.515625 39.667969 297.496094 C 39.667969 155.488281 155.292969 39.863281 297.296875 39.863281 C 387.140625 39.863281 468.851562 85.28125 516.453125 161.441406 C 541.839844 202.296875 555.324219 249.300781 555.324219 297.496094 C 555.324219 345.6875 541.839844 392.695312 516.453125 433.550781 Z M 516.453125 433.550781 " fill-opacity="1" fill-rule="nonzero"/></g></g></svg>