<svg xmlns="http://www.w3.org/2000/svg" xmlns:xlink="http://www.w3.org/1999/xlink" width="794" zoomAndPan="magnify" viewBox="0 0 595.5 595.499986" height="794" preserveAspectRatio="xMidYMid meet" version="1.0"><defs><clipPath id="741dfb0f7a"><path d="M 1.0625 0 L 484.589844 0 L 484.589844 595 L 1.0625 595 Z M 1.0625 0 " clip-rule="nonzero"/></clipPath><clipPath id="aa85d809af"><rect x="0" width="487" y="0" height="595"/></clipPath></defs><g transform="matrix(1, 0, 0, 1, 51, 0)"><g clip-path="url(#aa85d809af)"><g clip-path="url(#741dfb0f7a)"><path fill="#edbd5e" d="M 454.265625 460.546875 C 454.265625 452.835938 460.523438 446.605469 468.234375 446.605469 C 475.941406 446.605469 482.171875 452.863281 482.171875 460.546875 L 482.171875 489.402344 C 482.171875 518.480469 470.328125 544.878906 451.191406 563.984375 C 432.085938 583.117188 405.6875 594.960938 376.609375 594.960938 L 107.160156 594.960938 C 78.082031 594.960938 51.683594 583.117188 32.578125 563.984375 C 13.441406 544.847656 1.597656 518.453125 1.597656 489.402344 L 1.597656 105.421875 C 1.597656 76.34375 13.441406 49.945312 32.578125 30.839844 C 51.710938 11.703125 78.109375 -0.140625 107.160156 -0.140625 L 376.609375 -0.140625 C 405.6875 -0.140625 432.085938 11.703125 451.191406 30.839844 C 470.328125 49.972656 482.171875 76.371094 482.171875 105.421875 L 482.171875 134.277344 C 482.171875 141.988281 475.914062 148.21875 468.234375 148.21875 C 460.523438 148.21875 454.265625 141.960938 454.265625 134.277344 L 454.265625 105.421875 C 454.265625 84.054688 445.550781 64.609375 431.472656 50.53125 C 417.394531 36.453125 397.980469 27.738281 376.582031 27.738281 L 202.246094 27.738281 C 180.847656 27.738281 161.4375 36.480469 147.355469 50.53125 C 133.277344 64.609375 124.5625 84.023438 124.5625 105.421875 L 124.5625 283.472656 L 436.417969 283.472656 L 349.765625 196.792969 C 344.316406 191.347656 344.316406 182.519531 349.765625 177.074219 C 355.210938 171.625 364.039062 171.625 369.488281 177.074219 L 479.964844 287.550781 C 485.410156 292.996094 485.410156 301.824219 479.964844 307.273438 L 369.488281 417.75 C 364.039062 423.199219 355.210938 423.199219 349.765625 417.75 C 344.316406 412.304688 344.316406 403.476562 349.765625 398.027344 L 436.417969 311.351562 L 124.5625 311.351562 L 124.5625 489.402344 C 124.5625 510.769531 133.277344 530.210938 147.355469 544.289062 C 161.4375 558.371094 180.847656 567.085938 202.246094 567.085938 L 376.582031 567.085938 C 397.980469 567.085938 417.394531 558.339844 431.472656 544.289062 C 445.550781 530.210938 454.265625 510.796875 454.265625 489.402344 Z M 454.265625 460.546875 " fill-opacity="1" fill-rule="evenodd"/></g></g></g></svg>